<svg viewBox="0 0 280 245" xmlns="http://www.w3.org/2000/svg"><defs><linearGradient id="g1" x1="0" x2="1" y1="0" y2="1"><stop offset="0" stop-color="#6fbe44"/><stop offset="1" stop-color="#0d7a4a"/></linearGradient><linearGradient id="g2" x1="0" x2="1" y1="0" y2="1"><stop offset="0" stop-color="#16a05d"/><stop offset="1" stop-color="#2b76b9"/></linearGradient></defs><path d="M55 98 L138 35 L225 98" fill="none" stroke="url(#g1)" stroke-width="15" stroke-linecap="round" stroke-linejoin="round"/><path d="M74 100 V168 H118 V122 H158 V168 H204 V100" fill="none" stroke="#0e7848" stroke-width="13" stroke-linecap="round" stroke-linejoin="round"/><path d="M95 107 L137 151 L211 62" fill="none" stroke="url(#g2)" stroke-width="22" stroke-linecap="round" stroke-linejoin="round"/><rect x="139" y="76" width="13" height="13" fill="#0e7848"/><rect x="156" y="76" width="13" height="13" fill="#0e7848"/><rect x="139" y="93" width="13" height="13" fill="#0e7848"/><rect x="156" y="93" width="13" height="13" fill="#0e7848"/><path d="M91 30 l5 13 13 5-13 5-5 13-5-13-13-5 13-5z" fill="#f6d23f"/><path d="M211 20 l4 10 10 4-10 4-4 10-4-10-10-4 10-4z" fill="#f6d23f"/><text x="140" y="213" text-anchor="middle" font-size="47" font-weight="800" font-family="Arial" fill="#111111">CleanOps</text><text x="140" y="238" text-anchor="middle" font-size="16" font-weight="700" fill="#5e6e66" font-family="Arial">Hospitality Management</text></svg>